<svg width="20" height="20" viewBox="0 0 20 20" fill="none" xmlns="http://www.w3.org/2000/svg">
<path d="M13.25 3C12.9 3 12.604 2.879 12.362 2.637C12.12 2.395 11.9993 2.09933 12 1.75C12.0007 1.40067 12.1217 1.10467 12.363 0.862C12.6043 0.619333 12.9 0.498667 13.25 0.5C13.6 0.501333 13.896 0.622333 14.138 0.863C14.38 1.10367 14.5007 1.39933 14.5 1.75C14.4993 2.10067 14.3783 2.39667 14.137 2.638C13.8957 2.87933 13.6 3 13.25 3ZM13.25 19.5C12.9 19.5 12.604 19.379 12.362 19.137C12.12 18.895 11.9993 18.5993 12 18.25C12.0007 17.9007 12.1217 17.6047 12.363 17.362C12.6043 17.1193 12.9 16.9987 13.25 17C13.6 17.0013 13.896 17.1223 14.138 17.363C14.38 17.6037 14.5007 17.8993 14.5 18.25C14.4993 18.6007 14.3783 18.8967 14.137 19.138C13.8957 19.3793 13.6 19.5 13.25 19.5ZM17.25 6.5C16.9 6.5 16.604 6.379 16.362 6.137C16.12 5.895 15.9993 5.59933 16 5.25C16.0007 4.90067 16.1217 4.60467 16.363 4.362C16.6043 4.11933 16.9 3.99867 17.25 4C17.6 4.00133 17.896 4.12233 18.138 4.363C18.38 4.60367 18.5007 4.89933 18.5 5.25C18.4993 5.60067 18.3783 5.89667 18.137 6.138C17.8957 6.37933 17.6 6.5 17.25 6.5ZM17.25 16C16.9 16 16.604 15.879 16.362 15.637C16.12 15.395 15.9993 15.0993 16 14.75C16.0007 14.4007 16.1217 14.1047 16.363 13.862C16.6043 13.6193 16.9 13.4987 17.25 13.5C17.6 13.5013 17.896 13.6223 18.138 13.863C18.38 14.1037 18.5007 14.3993 18.5 14.75C18.4993 15.1007 18.3783 15.3967 18.137 15.638C17.8957 15.8793 17.6 16 17.25 16ZM18.75 11.25C18.4 11.25 18.104 11.129 17.862 10.887C17.62 10.645 17.4993 10.3493 17.5 10C17.5007 9.65067 17.6217 9.35467 17.863 9.112C18.1043 8.86933 18.4 8.74867 18.75 8.75C19.1 8.75133 19.396 8.87233 19.638 9.113C19.88 9.35367 20.0007 9.64933 20 10C19.9993 10.3507 19.8783 10.6467 19.637 10.888C19.3957 11.1293 19.1 11.25 18.75 11.25ZM10 20C8.61667 20 7.31667 19.7373 6.1 19.212C4.88334 18.6867 3.825 17.9743 2.925 17.075C2.025 16.1757 1.31267 15.1173 0.788001 13.9C0.263335 12.6827 0.000667933 11.3827 1.26582e-06 10C-0.000665401 8.61733 0.262001 7.31733 0.788001 6.1C1.314 4.88267 2.02633 3.82433 2.925 2.925C3.82367 2.02567 4.882 1.31333 6.1 0.788C7.318 0.262667 8.618 0 10 0V2C7.76667 2 5.875 2.775 4.325 4.325C2.775 5.875 2 7.76667 2 10C2 12.2333 2.775 14.125 4.325 15.675C5.875 17.225 7.76667 18 10 18V20ZM13.3 14.7L9 10.4V5H11V9.6L14.7 13.3L13.3 14.7Z" fill="#888787"/>
</svg>
