<svg width="90" height="89" viewBox="0 0 90 89" fill="none" xmlns="http://www.w3.org/2000/svg">
<path opacity="0.5" fill-rule="evenodd" clip-rule="evenodd" d="M49.4405 102.154C56.033 100.622 62.2591 97.8059 67.7634 93.8674C73.2677 89.929 77.9424 84.9449 81.5205 79.1998C85.0986 73.4547 87.5101 67.0612 88.6173 60.3841C89.7245 53.7071 89.5057 46.8773 87.9735 40.2848C86.4412 33.6923 83.6254 27.4662 79.687 21.9619C75.7485 16.4576 70.7644 11.783 65.0193 8.20483C59.2743 4.62672 52.8807 2.21521 46.2036 1.10801C39.5266 0.000805262 32.6969 0.219586 26.1044 1.75186C12.7902 4.84642 1.25069 13.1033 -5.97564 24.706C-13.202 36.3087 -15.5232 50.3068 -12.4286 63.621C-9.33405 76.9351 -1.07721 88.4746 10.5255 95.701C22.1282 102.927 36.1263 105.248 49.4405 102.154ZM41.1974 72.5572L61.3082 32.6076L51.0811 27.4592L33.7845 61.8103L18.4878 52.2785L12.4339 61.9989L33.0569 74.8432L38.3777 78.157L41.1974 72.5572Z" fill="#338F52"/>
</svg>
