<svg width="126" height="95" viewBox="0 0 126 95" fill="none" xmlns="http://www.w3.org/2000/svg">
<g opacity="0.5" clip-path="url(#clip0_1322_1864)">
<path d="M45.0966 64.0245L65.2487 70.3561C66.5227 70.7563 67.8066 70.6189 69.1003 69.9438C70.3941 69.2686 71.2411 68.294 71.6413 67.0201C72.0416 65.7461 71.9042 64.4622 71.229 63.1685C70.5539 61.8747 69.5793 61.0277 68.3053 60.6274L48.1532 54.2959L54.4848 34.1437C54.8851 32.8698 54.7476 31.5859 54.0725 30.2921C53.3974 28.9984 52.4228 28.1514 51.1488 27.7511C49.8748 27.3508 48.591 27.4883 47.2972 28.1634C46.0035 28.8386 45.1565 29.8131 44.7562 31.0871L38.4246 51.2392L18.2725 44.9077C16.9985 44.5074 15.7146 44.6448 14.4209 45.32C13.1271 45.9951 12.2801 46.9697 11.8799 48.2437C11.4796 49.5176 11.617 50.8015 12.2922 52.0952C12.9673 53.389 13.9419 54.236 15.2159 54.6363L35.368 60.9679L29.0364 81.12C28.6361 82.394 28.7736 83.6778 29.4487 84.9716C30.1239 86.2653 31.0984 87.1123 32.3724 87.5126C33.6464 87.9129 34.9303 87.7754 36.224 87.1003C37.5177 86.4252 38.3647 85.4506 38.765 84.1766L45.0966 64.0245ZM65.5891 103.293C59.2726 106.59 52.7107 108.488 45.9034 108.988C39.0962 109.489 32.5663 108.758 26.3137 106.796C20.0612 104.834 14.2867 101.699 8.9903 97.3907C3.69386 93.0824 -0.603221 87.7723 -3.90096 81.4604C-7.19869 75.1485 -9.09702 68.5866 -9.59595 61.7747C-10.0949 54.9628 -9.36411 48.4329 -7.40363 42.185C-5.44316 35.9371 -2.30803 30.1626 2.00176 24.8616C6.31154 19.5605 11.6216 15.2634 17.9321 11.9703C24.2425 8.67719 30.8044 6.77886 37.6178 6.2753C44.4311 5.77174 50.961 6.50251 57.2075 8.46762C63.4539 10.4327 69.2299 13.5671 74.5355 17.8706C79.841 22.1742 84.1366 27.4851 87.4222 33.8033C90.7077 40.1216 92.6061 46.6835 93.1172 53.489C93.6283 60.2946 92.8975 66.8245 90.9249 73.0787C88.9522 79.333 85.8179 85.109 81.5218 90.4067C77.2258 95.7045 71.9149 100 65.5891 103.293Z" fill="#D38200"/>
</g>
<defs>
<clipPath id="clip0_1322_1864">
<rect width="123.612" height="123.612" fill="white" transform="translate(-41.627 31.4297) rotate(-27.5578)"/>
</clipPath>
</defs>
</svg>
