<svg width="22" height="22" viewBox="0 0 22 22" fill="none" xmlns="http://www.w3.org/2000/svg">
<path d="M11.0004 21.3015C16.4452 21.3015 20.8591 16.8876 20.8591 11.4427C20.8591 5.9979 16.4452 1.58398 11.0004 1.58398C5.55551 1.58398 1.1416 5.9979 1.1416 11.4427C1.1416 16.8876 5.55551 21.3015 11.0004 21.3015Z" fill="#D68F30"/>
<path d="M1.81152 14.0037V15.0109C1.91465 15.2773 2.0298 15.5402 2.15527 15.7946V14.0037H1.81152ZM2.93559 15.8995V17.1095C3.07309 17.3037 3.21574 17.4945 3.36527 17.6784V15.8995H2.93559ZM4.42402 17.4807V18.7852C4.59074 18.9348 4.76262 19.0774 4.93965 19.2149V17.4807H4.42402ZM6.25621 18.6821V20.0846C6.42465 20.1774 6.59652 20.2651 6.77184 20.3493V18.6821H6.25621ZM8.33418 19.447V20.932C8.50434 20.9801 8.67621 21.023 8.8498 21.0626V19.447H8.33418ZM10.7662 19.7116V21.2946C10.8436 21.2963 10.9209 21.2998 11 21.2998C11.0945 21.2998 11.189 21.2946 11.2818 21.2929V19.7116H10.7662ZM13.1982 19.4349V21.0505C13.3718 21.011 13.5437 20.9663 13.7139 20.9182V19.4349H13.1982ZM15.2711 18.6598V20.3287C15.4464 20.2445 15.6182 20.1534 15.7867 20.0588V18.6598H15.2711ZM17.0981 17.448V19.184C17.275 19.0457 17.4469 18.9012 17.6137 18.7509V17.448H17.0981ZM19.0936 15.8616H18.6639V17.6405C18.8134 17.4549 18.9578 17.2641 19.0936 17.0682V15.8616ZM20.2107 13.959H19.867V15.7534C19.9925 15.4938 20.1076 15.2274 20.2107 14.9576V13.959Z" fill="#BC6F00"/>
<path d="M11.0004 20.4148C16.4452 20.4148 20.8591 16.0009 20.8591 10.556C20.8591 5.11118 16.4452 0.697266 11.0004 0.697266C5.55551 0.697266 1.1416 5.11118 1.1416 10.556C1.1416 16.0009 5.55551 20.4148 11.0004 20.4148Z" fill="#FFF176"/>
<path d="M11 19.5371C15.9598 19.5371 19.9805 15.5164 19.9805 10.5566C19.9805 5.59686 15.9598 1.57617 11 1.57617C6.04022 1.57617 2.01953 5.59686 2.01953 10.5566C2.01953 15.5164 6.04022 19.5371 11 19.5371Z" fill="#F2BC1A"/>
<path d="M2.00263 10.9C1.93903 9.7175 2.14356 8.51781 2.55606 7.39375C2.98575 6.27313 3.64403 5.23672 4.47419 4.35672C6.14138 2.59328 8.56138 1.57062 11.0003 1.55859C13.4392 1.57234 15.8609 2.59328 17.5247 4.35844C18.3565 5.23672 19.0131 6.27484 19.4428 7.39375C19.857 8.51953 20.0615 9.7175 19.9962 10.9H19.9618C19.9583 9.72037 19.7247 8.55276 19.2743 7.4625C18.8231 6.37346 18.164 5.38276 17.3339 4.54578C16.5032 3.70969 15.5163 3.0451 14.4292 2.58984C13.3424 2.13602 12.1763 1.90234 10.9986 1.90234C9.8208 1.90234 8.65475 2.13602 7.56794 2.58984C6.48085 3.0451 5.49389 3.70969 4.66325 4.54578C3.83279 5.38248 3.17364 6.37325 2.72278 7.4625C2.27238 8.55276 2.03886 9.72037 2.03528 10.9H2.00263Z" fill="#E08F00"/>
<path d="M11.0004 0.699219C5.55535 0.699219 1.1416 5.11297 1.1416 10.558C1.1416 16.003 5.55535 20.4167 11.0004 20.4167C16.4454 20.4167 20.8591 16.003 20.8591 10.558C20.8591 5.11297 16.4454 0.699219 11.0004 0.699219ZM11.0004 19.5384C6.04004 19.5384 2.01988 15.5183 2.01988 10.558C2.01988 5.59594 6.04004 1.57578 11.0004 1.57578C15.9607 1.57578 19.9808 5.59594 19.9808 10.5562C19.9808 15.5166 15.9607 19.5384 11.0004 19.5384Z" fill="#FFF176"/>
<path d="M6.52965 3.66992L6.74793 4.34539L7.45949 4.07383V4.34539L6.88371 4.76305L7.10371 5.16523V5.43852L6.52965 5.02086L5.95387 5.43852V5.16523L6.17387 4.76305L5.5998 4.34539V4.07383L6.30965 4.34539L6.52965 3.66992ZM3.78309 7.54742L4.00309 8.22289L4.71293 7.95133V8.22289L4.13887 8.64055L4.35887 9.04445V9.31602L3.78309 8.89836L3.20902 9.31602V9.04445L3.42902 8.64055L2.85324 8.22289V7.95133L3.5648 8.22289L3.78309 7.54742ZM3.7023 12.3273L3.9223 13.0027L4.63215 12.7312V13.0027L4.05809 13.4204L4.27809 13.8243V14.0959L3.7023 13.6782L3.12824 14.0959V13.8243L3.34824 13.4204L2.77246 13.0027V12.7312L3.48402 13.0027L3.7023 12.3273ZM6.63449 16.1223L6.85449 16.7977L7.56434 16.5262V16.7977L6.99027 17.2154L7.21027 17.6176V17.8909L6.63449 17.4732L6.06043 17.8909V17.6176L6.28043 17.2154L5.70465 16.7977V16.5262L6.41621 16.7977L6.63449 16.1223ZM15.4706 3.66992L15.2523 4.34539L14.5407 4.07383V4.34539L15.1165 4.76305L14.8965 5.16523V5.43852L15.4706 5.02086L16.0464 5.43852V5.16523L15.8264 4.76305L16.4004 4.34539V4.07383L15.6906 4.34539L15.4706 3.66992ZM18.2171 7.54742L17.9971 8.22289L17.2873 7.95133V8.22289L17.8614 8.64055L17.6414 9.04445V9.31602L18.2171 8.89836L18.7912 9.31602V9.04445L18.5712 8.64055L19.147 8.22289V7.95133L18.4354 8.22289L18.2171 7.54742ZM18.2979 12.3273L18.0779 13.0027L17.3681 12.7312V13.0027L17.9421 13.4204L17.7221 13.8243V14.0959L18.2979 13.6782L18.872 14.0959V13.8243L18.652 13.4204L19.2278 13.0027V12.7312L18.5162 13.0027L18.2979 12.3273ZM15.3657 16.1223L15.1457 16.7977L14.4359 16.5262V16.7977L15.01 17.2154L14.79 17.6176V17.8909L15.3657 17.4732L15.9398 17.8909V17.6176L15.7198 17.2154L16.2956 16.7977V16.5262L15.584 16.7977L15.3657 16.1223Z" fill="#D38200"/>
<path d="M15.3654 15.8488L15.5837 16.5243H16.2952L15.7195 16.942L15.9395 17.6174L15.3654 17.1998L14.7896 17.6174L15.0096 16.942L14.4355 16.5243H15.1454L15.3654 15.8488ZM18.2976 12.0555L18.5159 12.731H19.2274L18.6516 13.1487L18.8716 13.8241L18.2976 13.4065L17.7218 13.8241L17.9418 13.1487L17.3677 12.731H18.0776L18.2976 12.0555ZM18.2168 7.2757L18.4351 7.95117H19.1466L18.5709 8.36883L18.7909 9.0443L18.2168 8.62664L17.641 9.0443L17.861 8.36883L17.287 7.95117H17.9968L18.2168 7.2757ZM15.4702 3.39648L15.6902 4.07195H16.4001L15.826 4.48961L16.046 5.16508L15.4702 4.74742L14.8962 5.16508L15.1162 4.48961L14.5404 4.07195H15.252L15.4702 3.39648Z" fill="#FFF176"/>
<path d="M11.0089 17.6172L11.2289 18.2927L11.9388 18.0211V18.2927L11.3647 18.7103L11.5847 19.1142V19.3858L11.0089 18.9681L10.4349 19.3858V19.1142L10.6549 18.7103L10.0791 18.2927V18.0211L10.7907 18.2927L11.0089 17.6172Z" fill="#D38200"/>
<path d="M11.0089 17.2559L11.2289 17.9313H11.9388L11.3647 18.349L11.5847 19.0245L11.0089 18.6068L10.4349 19.0245L10.6549 18.349L10.0791 17.9313H10.7907L11.0089 17.2559Z" fill="#FFF176"/>
<path d="M11.0089 2.21484L11.2289 2.89031L11.9388 2.61875V2.89031L11.3647 3.30797L11.5847 3.71187V3.98344L11.0089 3.56578L10.4349 3.98344V3.71187L10.6549 3.30797L10.0791 2.89031V2.61875L10.7907 2.89031L11.0089 2.21484Z" fill="#D38200"/>
<path d="M11.0087 1.94336L11.2287 2.61883H11.9386L11.3645 3.03648L11.5845 3.71195L11.0087 3.2943L10.4346 3.71195L10.6546 3.03648L10.0789 2.61883H10.7904L11.0087 1.94336ZM6.63449 15.848L6.41621 16.5235H5.70465L6.28043 16.9412L6.06043 17.6166L6.63449 17.199L7.21027 17.6166L6.99027 16.9412L7.56434 16.5235H6.85449L6.63449 15.848ZM3.7023 12.0548L3.48402 12.7302H2.77246L3.34824 13.1479L3.12824 13.8234L3.7023 13.4057L4.27809 13.8234L4.05809 13.1479L4.63215 12.7302H3.9223L3.7023 12.0548ZM3.78309 7.27492L3.5648 7.95039H2.85324L3.42902 8.36805L3.20902 9.04352L3.78309 8.62586L4.35887 9.04352L4.13887 8.36805L4.71293 7.95039H4.00309L3.78309 7.27492ZM6.52965 3.3957L6.30965 4.07117H5.59981L6.17387 4.48883L5.95387 5.1643L6.52965 4.74664L7.10371 5.1643L6.88371 4.48883L7.45949 4.07117H6.74793L6.52965 3.3957Z" fill="#FFF176"/>
<path d="M16.3655 8.28455C16.3655 8.22439 5.64395 8.28455 5.64395 8.28455L5.5477 8.5733V9.06658C5.5477 9.15595 5.61988 9.22814 5.70926 9.22814H16.2899C16.3793 9.22814 16.4514 9.15595 16.4514 9.06658V8.58705L16.3655 8.28455ZM16.381 14.6955H5.68863L4.97363 15.0547L4.98223 15.517C4.98395 15.5669 5.0252 15.6081 5.07676 15.6081H16.9241C16.9739 15.6081 17.0169 15.5686 17.0186 15.517L17.0272 15.0633L16.381 14.6955Z" fill="#D38200"/>
<path d="M7.41262 13.2898H6.7973C6.6959 13.2898 6.6134 12.9701 6.6134 12.8687L7.5948 12.8377C7.5948 12.9391 7.5123 13.2898 7.41262 13.2898ZM7.6223 9.97086H6.5859C6.50855 9.97086 6.44152 9.9193 6.41918 9.84539L6.3384 9.16992H7.85605L7.7873 9.84539C7.76668 9.9193 7.69965 9.97086 7.6223 9.97086ZM6.5859 13.4943H7.6223C7.69965 13.4943 7.85262 13.5424 7.87324 13.6163C7.87324 13.6163 7.86809 13.9377 7.86809 14.0649C7.86809 14.1921 7.81652 14.2849 7.70137 14.2849H6.50684C6.39168 14.2849 6.34012 14.1818 6.34012 14.0649C6.34012 13.948 6.33496 13.6198 6.33496 13.6198C6.3573 13.5459 6.50855 13.4943 6.5859 13.4943ZM15.4048 13.2898H14.7895C14.6881 13.2898 14.6056 12.9701 14.6056 12.8687L15.587 12.8377C15.587 12.9391 15.5062 13.2898 15.4048 13.2898ZM15.6145 9.97086H14.5781C14.5007 9.97086 14.4337 9.9193 14.4114 9.84539L14.3306 9.16992H15.8482L15.7795 9.84539C15.7589 9.9193 15.6918 9.97086 15.6145 9.97086ZM14.5781 13.4943H15.6145C15.6918 13.4943 15.8448 13.5424 15.8654 13.6163C15.8654 13.6163 15.8603 13.9377 15.8603 14.0649C15.8603 14.1921 15.8087 14.2849 15.6936 14.2849H14.499C14.3839 14.2849 14.3323 14.1818 14.3323 14.0649C14.3323 13.948 14.3271 13.6198 14.3271 13.6198C14.3495 13.5459 14.5007 13.4943 14.5781 13.4943ZM12.7407 13.2898H12.1254C12.024 13.2898 11.9415 12.9701 11.9415 12.8687L12.9229 12.8377C12.9229 12.9391 12.8421 13.2898 12.7407 13.2898ZM12.9504 9.97086H11.914C11.8367 9.97086 11.7696 9.9193 11.7473 9.84539L11.6665 9.16992H13.1842L13.1154 9.84539C13.0948 9.9193 13.0278 9.97086 12.9504 9.97086ZM11.914 13.4943H12.9504C13.0278 13.4943 13.1807 13.5424 13.2014 13.6163C13.2014 13.6163 13.1962 13.9377 13.1962 14.0649C13.1962 14.1921 13.1446 14.2849 13.0295 14.2849H11.835C11.7198 14.2849 11.6682 14.1818 11.6682 14.0649C11.6682 13.948 11.6631 13.6198 11.6631 13.6198C11.6854 13.5459 11.8367 13.4943 11.914 13.4943ZM10.0767 13.2898H9.46137C9.35996 13.2898 9.27746 12.9701 9.27746 12.8687L10.2589 12.8377C10.2589 12.9391 10.1781 13.2898 10.0767 13.2898ZM10.2864 9.97086H9.24996C9.17262 9.97086 9.10559 9.9193 9.08324 9.84539L9.00246 9.16992H10.5201L10.4514 9.84539C10.4307 9.9193 10.3637 9.97086 10.2864 9.97086ZM9.24996 13.4943H10.2864C10.3637 13.4943 10.5167 13.5424 10.5373 13.6163C10.5373 13.6163 10.5321 13.9377 10.5321 14.0649C10.5321 14.1921 10.4806 14.2849 10.3654 14.2849H9.1709C9.05574 14.2849 9.00418 14.1818 9.00418 14.0649C9.00418 13.948 8.99902 13.6198 8.99902 13.6198C9.02137 13.5459 9.17262 13.4943 9.24996 13.4943Z" fill="#D38200"/>
<path d="M16.443 7.82328C16.443 7.76312 16.4121 7.70641 16.3657 7.67891L11.0066 4.63672L5.64066 7.67547C5.5891 7.70641 5.55645 7.76312 5.55645 7.82328L5.54785 8.57437C5.54785 8.66891 5.6252 8.74625 5.71973 8.74625H16.278C16.3725 8.74625 16.4499 8.66891 16.4499 8.57437L16.443 7.82328Z" fill="#FFF176"/>
<path d="M15.0973 7.61844L10.9998 5.29297L6.90234 7.61844H15.0973Z" fill="#F2BC1A"/>
<path d="M13.5904 7.33648L11.0002 5.86523L8.41007 7.33648H13.5904ZM16.0516 14.098H5.94882C5.84913 14.098 5.7546 14.141 5.68757 14.2149L4.9932 14.9901C4.94507 15.0434 4.98288 15.1276 5.05507 15.1276H16.9454C17.0159 15.1276 17.0537 15.0434 17.0073 14.9901L16.3112 14.2149C16.2459 14.141 16.1496 14.098 16.0516 14.098ZM15.4054 12.9791H14.7901C14.6887 12.9791 14.6062 12.8966 14.6062 12.7952V10.0487C14.6062 9.94727 14.6887 9.86477 14.7901 9.86477H15.4054C15.5068 9.86477 15.5893 9.94727 15.5893 10.0487V12.797C15.5893 12.8984 15.5068 12.9791 15.4054 12.9791ZM15.6168 9.66023H14.5804C14.503 9.66023 14.436 9.60867 14.4137 9.53477L14.3346 9.26148C14.3019 9.15148 14.3862 9.04148 14.5013 9.04148H15.6959C15.811 9.04148 15.8935 9.15148 15.8626 9.26148L15.7835 9.53477C15.7612 9.60867 15.6924 9.66023 15.6168 9.66023ZM14.5787 13.1854H15.6151C15.6924 13.1854 15.7594 13.237 15.7818 13.3109L15.8609 13.5841C15.8935 13.6941 15.8093 13.8041 15.6941 13.8041H14.4996C14.3844 13.8041 14.3019 13.6941 14.3329 13.5841L14.4119 13.3109C14.4343 13.2352 14.503 13.1854 14.5787 13.1854ZM7.4132 12.9791H6.79788C6.69648 12.9791 6.61398 12.8966 6.61398 12.7952V10.0487C6.61398 9.94727 6.69648 9.86477 6.79788 9.86477H7.4132C7.5146 9.86477 7.5971 9.94727 7.5971 10.0487V12.797C7.59538 12.8984 7.51288 12.9791 7.4132 12.9791ZM7.62288 9.66023H6.58648C6.50913 9.66023 6.4421 9.60867 6.41976 9.53477L6.3407 9.26148C6.30804 9.15148 6.39226 9.04148 6.50742 9.04148H7.70195C7.8171 9.04148 7.8996 9.15148 7.86866 9.26148L7.7896 9.53477C7.76726 9.60867 7.70023 9.66023 7.62288 9.66023ZM6.58648 13.1854H7.62288C7.70023 13.1854 7.76726 13.237 7.7896 13.3109L7.86866 13.5841C7.90132 13.6941 7.8171 13.8041 7.70195 13.8041H6.50742C6.39226 13.8041 6.30976 13.6941 6.3407 13.5841L6.41976 13.3109C6.4421 13.2352 6.50913 13.1854 6.58648 13.1854ZM10.0773 12.9791H9.46195C9.36054 12.9791 9.27804 12.8966 9.27804 12.7952V10.0487C9.27804 9.94727 9.36054 9.86477 9.46195 9.86477H10.0773C10.1787 9.86477 10.2612 9.94727 10.2612 10.0487V12.797C10.2607 12.8454 10.2411 12.8918 10.2067 12.9259C10.1723 12.96 10.1257 12.9791 10.0773 12.9791ZM10.2869 9.66023H9.25054C9.1732 9.66023 9.10616 9.60867 9.08382 9.53477L9.00476 9.26148C8.9721 9.15148 9.05632 9.04148 9.17148 9.04148H10.366C10.4812 9.04148 10.5637 9.15148 10.5327 9.26148L10.4537 9.53477C10.4313 9.60867 10.3643 9.66023 10.2869 9.66023ZM9.25054 13.1854H10.2869C10.3643 13.1854 10.4313 13.237 10.4537 13.3109L10.5327 13.5841C10.5654 13.6941 10.4812 13.8041 10.366 13.8041H9.17148C9.05632 13.8041 8.97382 13.6941 9.00476 13.5841L9.08382 13.3109C9.10616 13.2352 9.1732 13.1854 9.25054 13.1854ZM12.7413 12.9791H12.126C12.0246 12.9791 11.9421 12.8966 11.9421 12.7952V10.0487C11.9421 9.94727 12.0246 9.86477 12.126 9.86477H12.7413C12.8427 9.86477 12.9252 9.94727 12.9252 10.0487V12.797C12.9248 12.8454 12.9052 12.8918 12.8708 12.9259C12.8363 12.96 12.7898 12.9791 12.7413 12.9791ZM12.951 9.66023H11.9146C11.8373 9.66023 11.7702 9.60867 11.7479 9.53477L11.6688 9.26148C11.6362 9.15148 11.7204 9.04148 11.8355 9.04148H13.0301C13.1452 9.04148 13.2277 9.15148 13.1968 9.26148L13.1177 9.53477C13.0954 9.60867 13.0284 9.66023 12.951 9.66023ZM11.9146 13.1854H12.951C13.0284 13.1854 13.0954 13.237 13.1177 13.3109L13.1968 13.5841C13.2294 13.6941 13.1452 13.8041 13.0301 13.8041H11.8355C11.7204 13.8041 11.6379 13.6941 11.6688 13.5841L11.7479 13.3109C11.7702 13.2352 11.839 13.1854 11.9146 13.1854Z" fill="#FFF176"/>
</svg>
